<?xml version='1.0' encoding='UTF-8' standalone='no'?>
<svg width="576pt" viewBox="0 0 576 432" height="432pt" xmlns="http://www.w3.org/2000/svg" xmlns:xlink="http://www.w3.org/1999/xlink">
 <title>gl2ps_renderer figure</title>
 <desc>
Creator: GL2PS 1.4.0, (C) 1999-2017 C. Geuzaine
For: Octave
CreationDate: Wed Jun 05 19:43:15 2019
</desc>
 <defs/>
 <polygon fill="#ffffff" points="0,0 576,0 576,432 0,432"/>
 <g>
  <polygon fill="#ffffff" shape-rendering="crispEdges" points="0,432 576,432 576,0 0,0"/>
  <clipPath id="cp00576432">
   <polygon points="0,432 576,432 576,0 0,0"/>
  </clipPath>
  <g clip-path="url(#cp00576432)">
   <polygon fill="#ffffff" shape-rendering="crispEdges" points="74.88,384.48 521.28,384.48 521.28,32.4 74.88,32.4"/>
   <polyline stroke-linejoin="miter" stroke="#262626" fill="none" stroke-width="0.5" stroke-linecap="butt" points="74.88,384.48 74.88,380.015"/>
   <polyline stroke-linejoin="miter" stroke="#262626" fill="none" stroke-width="0.5" stroke-linecap="butt" points="74.88,32.4 74.88,36.865"/>
   <polyline stroke-linejoin="miter" stroke="#262626" fill="none" stroke-width="0.5" stroke-linecap="butt" points="164.16,384.48 164.16,380.015"/>
   <polyline stroke-linejoin="miter" stroke="#262626" fill="none" stroke-width="0.5" stroke-linecap="butt" points="164.16,32.4 164.16,36.865"/>
   <polyline stroke-linejoin="miter" stroke="#262626" fill="none" stroke-width="0.5" stroke-linecap="butt" points="253.44,384.48 253.44,380.015"/>
   <polyline stroke-linejoin="miter" stroke="#262626" fill="none" stroke-width="0.5" stroke-linecap="butt" points="253.44,32.4 253.44,36.865"/>
   <polyline stroke-linejoin="miter" stroke="#262626" fill="none" stroke-width="0.5" stroke-linecap="butt" points="342.72,384.48 342.72,380.015"/>
   <polyline stroke-linejoin="miter" stroke="#262626" fill="none" stroke-width="0.5" stroke-linecap="butt" points="342.72,32.4 342.72,36.865"/>
   <polyline stroke-linejoin="miter" stroke="#262626" fill="none" stroke-width="0.5" stroke-linecap="butt" points="432,384.48 432,380.015"/>
   <polyline stroke-linejoin="miter" stroke="#262626" fill="none" stroke-width="0.5" stroke-linecap="butt" points="432,32.4 432,36.865"/>
   <polyline stroke-linejoin="miter" stroke="#262626" fill="none" stroke-width="0.5" stroke-linecap="butt" points="521.28,384.48 521.28,380.015"/>
   <polyline stroke-linejoin="miter" stroke="#262626" fill="none" stroke-width="0.5" stroke-linecap="butt" points="521.28,32.4 521.28,36.865"/>
   <text font-size="10" font-family="FreeSans" font-weight="normal" xml:space="preserve" font-style="normal" transform="translate(67.38,399.982) rotate(-0,7.5,-8)">
    <tspan fill="rgb(38,38,38)" x="0 3 9 " y="-0">-20</tspan>
   </text>
   <text font-size="10" font-family="FreeSans" font-weight="normal" xml:space="preserve" font-style="normal" transform="translate(156.66,399.982) rotate(-0,7.5,-8)">
    <tspan fill="rgb(38,38,38)" x="0 3 9 " y="-0">-15</tspan>
   </text>
   <text font-size="10" font-family="FreeSans" font-weight="normal" xml:space="preserve" font-style="normal" transform="translate(245.94,399.982) rotate(-0,7.5,-8)">
    <tspan fill="rgb(38,38,38)" x="0 3 9 " y="-0">-10</tspan>
   </text>
   <text font-size="10" font-family="FreeSans" font-weight="normal" xml:space="preserve" font-style="normal" transform="translate(338.22,399.982) rotate(-0,4.5,-8)">
    <tspan fill="rgb(38,38,38)" x="0 3 " y="-0">-5</tspan>
   </text>
   <text font-size="10" font-family="FreeSans" font-weight="normal" xml:space="preserve" font-style="normal" transform="translate(429,399.982) rotate(-0,3,-8)">
    <tspan fill="rgb(38,38,38)" x="0 " y="-0">0</tspan>
   </text>
   <text font-size="10" font-family="FreeSans" font-weight="normal" xml:space="preserve" font-style="normal" transform="translate(518.28,399.982) rotate(-0,3,-8)">
    <tspan fill="rgb(38,38,38)" x="0 " y="-0">5</tspan>
   </text>
   <polyline stroke-linejoin="miter" stroke="#262626" fill="none" stroke-width="0.5" stroke-linecap="butt" points="74.88,384.48 79.348,384.48"/>
   <polyline stroke-linejoin="miter" stroke="#262626" fill="none" stroke-width="0.5" stroke-linecap="butt" points="521.28,384.48 516.812,384.48"/>
   <polyline stroke-linejoin="miter" stroke="#262626" fill="none" stroke-width="0.5" stroke-linecap="butt" points="74.88,325.8 79.348,325.8"/>
   <polyline stroke-linejoin="miter" stroke="#262626" fill="none" stroke-width="0.5" stroke-linecap="butt" points="521.28,325.8 516.812,325.8"/>
   <polyline stroke-linejoin="miter" stroke="#262626" fill="none" stroke-width="0.5" stroke-linecap="butt" points="74.88,267.12 79.348,267.12"/>
   <polyline stroke-linejoin="miter" stroke="#262626" fill="none" stroke-width="0.5" stroke-linecap="butt" points="521.28,267.12 516.812,267.12"/>
   <polyline stroke-linejoin="miter" stroke="#262626" fill="none" stroke-width="0.5" stroke-linecap="butt" points="74.88,208.44 79.348,208.44"/>
   <polyline stroke-linejoin="miter" stroke="#262626" fill="none" stroke-width="0.5" stroke-linecap="butt" points="521.28,208.44 516.812,208.44"/>
   <polyline stroke-linejoin="miter" stroke="#262626" fill="none" stroke-width="0.5" stroke-linecap="butt" points="74.88,149.76 79.348,149.76"/>
   <polyline stroke-linejoin="miter" stroke="#262626" fill="none" stroke-width="0.5" stroke-linecap="butt" points="521.28,149.76 516.812,149.76"/>
   <polyline stroke-linejoin="miter" stroke="#262626" fill="none" stroke-width="0.5" stroke-linecap="butt" points="74.88,91.08 79.348,91.08"/>
   <polyline stroke-linejoin="miter" stroke="#262626" fill="none" stroke-width="0.5" stroke-linecap="butt" points="521.28,91.08 516.812,91.08"/>
   <polyline stroke-linejoin="miter" stroke="#262626" fill="none" stroke-width="0.5" stroke-linecap="butt" points="74.88,32.4 79.348,32.4"/>
   <polyline stroke-linejoin="miter" stroke="#262626" fill="none" stroke-width="0.5" stroke-linecap="butt" points="521.28,32.4 516.812,32.4"/>
   <text font-size="10" font-family="FreeSans" font-weight="normal" xml:space="preserve" font-style="normal" transform="translate(63.8755,388.48) rotate(-0,6,-4)">
    <tspan fill="rgb(38,38,38)" x="0 " y="-0">0</tspan>
   </text>
   <text font-size="10" font-family="FreeSans" font-weight="normal" xml:space="preserve" font-style="normal" transform="translate(57.8755,329.8) rotate(-0,12,-4)">
    <tspan fill="rgb(38,38,38)" x="0 6 " y="-0">50</tspan>
   </text>
   <text font-size="10" font-family="FreeSans" font-weight="normal" xml:space="preserve" font-style="normal" transform="translate(51.8755,271.12) rotate(-0,18,-4)">
    <tspan fill="rgb(38,38,38)" x="0 6 12 " y="-0">100</tspan>
   </text>
   <text font-size="10" font-family="FreeSans" font-weight="normal" xml:space="preserve" font-style="normal" transform="translate(51.8755,212.44) rotate(-0,18,-4)">
    <tspan fill="rgb(38,38,38)" x="0 6 12 " y="-0">150</tspan>
   </text>
   <text font-size="10" font-family="FreeSans" font-weight="normal" xml:space="preserve" font-style="normal" transform="translate(51.8755,153.76) rotate(-0,18,-4)">
    <tspan fill="rgb(38,38,38)" x="0 6 12 " y="-0">200</tspan>
   </text>
   <text font-size="10" font-family="FreeSans" font-weight="normal" xml:space="preserve" font-style="normal" transform="translate(51.8755,95.08) rotate(-0,18,-4)">
    <tspan fill="rgb(38,38,38)" x="0 6 12 " y="-0">250</tspan>
   </text>
   <text font-size="10" font-family="FreeSans" font-weight="normal" xml:space="preserve" font-style="normal" transform="translate(51.8755,36.4) rotate(-0,18,-4)">
    <tspan fill="rgb(38,38,38)" x="0 6 12 " y="-0">300</tspan>
   </text>
   <polyline stroke-linejoin="miter" stroke="#262626" fill="none" stroke-dasharray="16,0" stroke-width="0.5" stroke-linecap="square" points="74.88,384.48 521.28,384.48"/>
   <polyline stroke-linejoin="miter" stroke="#262626" fill="none" stroke-dasharray="16,0" stroke-width="0.5" stroke-linecap="square" points="74.88,32.4 521.28,32.4"/>
   <polyline stroke-linejoin="miter" stroke="#262626" fill="none" stroke-dasharray="16,0" stroke-width="0.5" stroke-linecap="square" points="74.88,384.48 74.88,32.4"/>
   <polyline stroke-linejoin="miter" stroke="#262626" fill="none" stroke-dasharray="16,0" stroke-width="0.5" stroke-linecap="square" points="521.28,384.48 521.28,32.4"/>
   <polygon fill="#440154" shape-rendering="crispEdges" points="162.368,384.48 162.368,383.306 126.321,383.306 126.321,384.48"/>
   <polygon fill="#440154" shape-rendering="crispEdges" points="198.414,384.48 198.414,377.438 162.368,377.438 162.368,384.48"/>
   <polygon fill="#440154" shape-rendering="crispEdges" points="234.46,384.48 234.46,325.8 198.414,325.8 198.414,384.48"/>
   <polygon fill="#440154" shape-rendering="crispEdges" points="270.506,384.48 270.506,250.69 234.46,250.69 234.46,384.48"/>
   <polygon fill="#440154" shape-rendering="crispEdges" points="306.552,384.48 306.552,148.586 270.506,148.586 270.506,384.48"/>
   <polygon fill="#440154" shape-rendering="crispEdges" points="342.598,384.48 342.598,86.3856 306.552,86.3856 306.552,384.48"/>
   <polygon fill="#440154" shape-rendering="crispEdges" points="378.645,384.48 378.645,147.413 342.598,147.413 342.598,384.48"/>
   <polygon fill="#440154" shape-rendering="crispEdges" points="414.691,384.48 414.691,236.606 378.645,236.606 378.645,384.48"/>
   <polygon fill="#440154" shape-rendering="crispEdges" points="450.737,384.48 450.737,338.71 414.691,338.71 414.691,384.48"/>
   <polygon fill="#440154" shape-rendering="crispEdges" points="486.783,384.48 486.783,376.265 450.737,376.265 450.737,384.48"/>
   <polyline stroke-linejoin="miter" stroke="#000000" fill="none" stroke-width="0.5" stroke-linecap="butt" points="162.368,383.306 126.321,383.306 126.321,384.48 162.368,384.48 162.368,383.306"/>
   <polyline stroke-linejoin="miter" stroke="#000000" fill="none" stroke-width="0.5" stroke-linecap="butt" points="198.414,377.438 162.368,377.438 162.368,384.48 198.414,384.48 198.414,377.438"/>
   <polyline stroke-linejoin="miter" stroke="#000000" fill="none" stroke-width="0.5" stroke-linecap="butt" points="234.46,325.8 198.414,325.8 198.414,384.48 234.46,384.48 234.46,325.8"/>
   <polyline stroke-linejoin="miter" stroke="#000000" fill="none" stroke-width="0.5" stroke-linecap="butt" points="270.506,250.69 234.46,250.69 234.46,384.48 270.506,384.48 270.506,250.69"/>
   <polyline stroke-linejoin="miter" stroke="#000000" fill="none" stroke-width="0.5" stroke-linecap="butt" points="306.552,148.586 270.506,148.586 270.506,384.48 306.552,384.48 306.552,148.586"/>
   <polyline stroke-linejoin="miter" stroke="#000000" fill="none" stroke-width="0.5" stroke-linecap="butt" points="342.598,86.3856 306.552,86.3856 306.552,384.48 342.598,384.48 342.598,86.3856"/>
   <polyline stroke-linejoin="miter" stroke="#000000" fill="none" stroke-width="0.5" stroke-linecap="butt" points="378.645,147.413 342.598,147.413 342.598,384.48 378.645,384.48 378.645,147.413"/>
   <polyline stroke-linejoin="miter" stroke="#000000" fill="none" stroke-width="0.5" stroke-linecap="butt" points="414.691,236.606 378.645,236.606 378.645,384.48 414.691,384.48 414.691,236.606"/>
   <polyline stroke-linejoin="miter" stroke="#000000" fill="none" stroke-width="0.5" stroke-linecap="butt" points="450.737,338.71 414.691,338.71 414.691,384.48 450.737,384.48 450.737,338.71"/>
   <polyline stroke-linejoin="miter" stroke="#000000" fill="none" stroke-width="0.5" stroke-linecap="butt" points="486.783,376.265 450.737,376.265 450.737,384.48 486.783,384.48 486.783,376.265"/>
   <polyline stroke-linejoin="round" stroke="#000000" fill="none" stroke-width="0.5" stroke-linecap="butt" points="74.88,384.48 521.28,384.48"/>
  </g>
 </g>
</svg>
