<?xml version='1.0' encoding='UTF-8' standalone='no'?>
<svg width="576pt" viewBox="0 0 576 432" xmlns:xlink="http://www.w3.org/1999/xlink" height="432pt" xmlns="http://www.w3.org/2000/svg">
 <title>gl2ps_renderer figure</title>
 <desc>
Creator: GL2PS 1.4.0, (C) 1999-2017 C. Geuzaine
For: Octave
CreationDate: Mon Jun 10 02:24:57 2019
</desc>
 <defs/>
 <polygon fill="#ffffff" points="0,0 576,0 576,432 0,432"/>
 <g>
  <polygon fill="#ffffff" shape-rendering="crispEdges" points="0,432 576,432 576,0 0,0"/>
  <clipPath id="cp00576432">
   <polygon points="0,432 576,432 576,0 0,0"/>
  </clipPath>
  <g clip-path="url(#cp00576432)">
   <polygon fill="#ffffff" shape-rendering="crispEdges" points="74.88,384.48 521.28,384.48 521.28,32.4 74.88,32.4"/>
   <polyline fill="none" stroke-linecap="butt" stroke="#262626" points="74.88,384.48 74.88,380.015" stroke-width="0.5" stroke-linejoin="miter"/>
   <polyline fill="none" stroke-linecap="butt" stroke="#262626" points="74.88,32.4 74.88,36.865" stroke-width="0.5" stroke-linejoin="miter"/>
   <polyline fill="none" stroke-linecap="butt" stroke="#262626" points="164.16,384.48 164.16,380.015" stroke-width="0.5" stroke-linejoin="miter"/>
   <polyline fill="none" stroke-linecap="butt" stroke="#262626" points="164.16,32.4 164.16,36.865" stroke-width="0.5" stroke-linejoin="miter"/>
   <polyline fill="none" stroke-linecap="butt" stroke="#262626" points="253.44,384.48 253.44,380.015" stroke-width="0.5" stroke-linejoin="miter"/>
   <polyline fill="none" stroke-linecap="butt" stroke="#262626" points="253.44,32.4 253.44,36.865" stroke-width="0.5" stroke-linejoin="miter"/>
   <polyline fill="none" stroke-linecap="butt" stroke="#262626" points="342.72,384.48 342.72,380.015" stroke-width="0.5" stroke-linejoin="miter"/>
   <polyline fill="none" stroke-linecap="butt" stroke="#262626" points="342.72,32.4 342.72,36.865" stroke-width="0.5" stroke-linejoin="miter"/>
   <polyline fill="none" stroke-linecap="butt" stroke="#262626" points="432,384.48 432,380.015" stroke-width="0.5" stroke-linejoin="miter"/>
   <polyline fill="none" stroke-linecap="butt" stroke="#262626" points="432,32.4 432,36.865" stroke-width="0.5" stroke-linejoin="miter"/>
   <polyline fill="none" stroke-linecap="butt" stroke="#262626" points="521.28,384.48 521.28,380.015" stroke-width="0.5" stroke-linejoin="miter"/>
   <polyline fill="none" stroke-linecap="butt" stroke="#262626" points="521.28,32.4 521.28,36.865" stroke-width="0.5" stroke-linejoin="miter"/>
   <text transform="translate(71.88,399.982) rotate(-0,3,-8)" font-size="10" font-family="FreeSans" font-weight="normal" xml:space="preserve" font-style="normal">
    <tspan fill="rgb(38,38,38)" x="0 " y="-0">0</tspan>
   </text>
   <text transform="translate(156.66,399.982) rotate(-0,7.5,-8)" font-size="10" font-family="FreeSans" font-weight="normal" xml:space="preserve" font-style="normal">
    <tspan fill="rgb(38,38,38)" x="0 6 9 " y="-0">0.2</tspan>
   </text>
   <text transform="translate(245.94,399.982) rotate(-0,7.5,-8)" font-size="10" font-family="FreeSans" font-weight="normal" xml:space="preserve" font-style="normal">
    <tspan fill="rgb(38,38,38)" x="0 6 9 " y="-0">0.4</tspan>
   </text>
   <text transform="translate(335.22,399.982) rotate(-0,7.5,-8)" font-size="10" font-family="FreeSans" font-weight="normal" xml:space="preserve" font-style="normal">
    <tspan fill="rgb(38,38,38)" x="0 6 9 " y="-0">0.6</tspan>
   </text>
   <text transform="translate(424.5,399.982) rotate(-0,7.5,-8)" font-size="10" font-family="FreeSans" font-weight="normal" xml:space="preserve" font-style="normal">
    <tspan fill="rgb(38,38,38)" x="0 6 9 " y="-0">0.8</tspan>
   </text>
   <text transform="translate(518.28,399.982) rotate(-0,3,-8)" font-size="10" font-family="FreeSans" font-weight="normal" xml:space="preserve" font-style="normal">
    <tspan fill="rgb(38,38,38)" x="0 " y="-0">1</tspan>
   </text>
   <polyline fill="none" stroke-linecap="butt" stroke="#262626" points="74.88,384.48 79.348,384.48" stroke-width="0.5" stroke-linejoin="miter"/>
   <polyline fill="none" stroke-linecap="butt" stroke="#262626" points="521.28,384.48 516.812,384.48" stroke-width="0.5" stroke-linejoin="miter"/>
   <polyline fill="none" stroke-linecap="butt" stroke="#262626" points="74.88,296.46 79.348,296.46" stroke-width="0.5" stroke-linejoin="miter"/>
   <polyline fill="none" stroke-linecap="butt" stroke="#262626" points="521.28,296.46 516.812,296.46" stroke-width="0.5" stroke-linejoin="miter"/>
   <polyline fill="none" stroke-linecap="butt" stroke="#262626" points="74.88,208.44 79.348,208.44" stroke-width="0.5" stroke-linejoin="miter"/>
   <polyline fill="none" stroke-linecap="butt" stroke="#262626" points="521.28,208.44 516.812,208.44" stroke-width="0.5" stroke-linejoin="miter"/>
   <polyline fill="none" stroke-linecap="butt" stroke="#262626" points="74.88,120.42 79.348,120.42" stroke-width="0.5" stroke-linejoin="miter"/>
   <polyline fill="none" stroke-linecap="butt" stroke="#262626" points="521.28,120.42 516.812,120.42" stroke-width="0.5" stroke-linejoin="miter"/>
   <polyline fill="none" stroke-linecap="butt" stroke="#262626" points="74.88,32.4 79.348,32.4" stroke-width="0.5" stroke-linejoin="miter"/>
   <polyline fill="none" stroke-linecap="butt" stroke="#262626" points="521.28,32.4 516.812,32.4" stroke-width="0.5" stroke-linejoin="miter"/>
   <text transform="translate(60.8755,388.48) rotate(-0,9,-4)" font-size="10" font-family="FreeSans" font-weight="normal" xml:space="preserve" font-style="normal">
    <tspan fill="rgb(38,38,38)" x="0 3 " y="-0">-1</tspan>
   </text>
   <text transform="translate(51.8755,300.46) rotate(-0,18,-4)" font-size="10" font-family="FreeSans" font-weight="normal" xml:space="preserve" font-style="normal">
    <tspan fill="rgb(38,38,38)" x="0 3 9 12 " y="-0">-0.5</tspan>
   </text>
   <text transform="translate(63.8755,212.44) rotate(-0,6,-4)" font-size="10" font-family="FreeSans" font-weight="normal" xml:space="preserve" font-style="normal">
    <tspan fill="rgb(38,38,38)" x="0 " y="-0">0</tspan>
   </text>
   <text transform="translate(54.8755,124.42) rotate(-0,15,-4)" font-size="10" font-family="FreeSans" font-weight="normal" xml:space="preserve" font-style="normal">
    <tspan fill="rgb(38,38,38)" x="0 6 9 " y="-0">0.5</tspan>
   </text>
   <text transform="translate(63.8755,36.4) rotate(-0,6,-4)" font-size="10" font-family="FreeSans" font-weight="normal" xml:space="preserve" font-style="normal">
    <tspan fill="rgb(38,38,38)" x="0 " y="-0">1</tspan>
   </text>
   <polyline stroke-dasharray="16,0" fill="none" stroke-linecap="square" stroke="#262626" points="74.88,384.48 521.28,384.48" stroke-width="0.5" stroke-linejoin="miter"/>
   <polyline stroke-dasharray="16,0" fill="none" stroke-linecap="square" stroke="#262626" points="74.88,32.4 521.28,32.4" stroke-width="0.5" stroke-linejoin="miter"/>
   <polyline stroke-dasharray="16,0" fill="none" stroke-linecap="square" stroke="#262626" points="74.88,384.48 74.88,32.4" stroke-width="0.5" stroke-linejoin="miter"/>
   <polyline stroke-dasharray="16,0" fill="none" stroke-linecap="square" stroke="#262626" points="521.28,384.48 521.28,32.4" stroke-width="0.5" stroke-linejoin="miter"/>
   <polyline fill="none" stroke-linecap="butt" stroke="#0071bc" points="74.88,208.44 79.344,164.661 83.808,123.632 88.272,87.9323 92.736,59.8045 97.2,41.016 101.664,32.7474 106.128,35.5182 110.592,49.1543 115.056,72.7989 119.52,104.966 123.984,143.635 128.448,186.376 132.912,230.504 137.376,273.245 141.84,311.914 146.304,344.081 150.768,367.726 155.232,381.362 159.696,384.133 164.16,375.864 168.624,357.076 173.088,328.948 177.552,293.248 182.016,252.219 186.48,208.44 190.944,164.661 195.408,123.632 199.872,87.9323 204.336,59.8045 208.8,41.016 213.264,32.7474 217.728,35.5182 222.192,49.1543 226.656,72.7989 231.12,104.966 235.584,143.635 240.048,186.376 244.512,230.504 248.976,273.245 253.44,311.914 257.904,344.081 262.368,367.726 266.832,381.362 271.296,384.133 275.76,375.864 280.224,357.076 284.688,328.948 289.152,293.248 293.616,252.219 298.08,208.44 302.544,164.661 307.008,123.632 311.472,87.9323 315.936,59.8045 320.4,41.016 324.864,32.7474 329.328,35.5182 333.792,49.1543 338.256,72.7989 342.72,104.966 347.184,143.635 351.648,186.376 356.112,230.504 360.576,273.245 365.04,311.914 369.504,344.081 373.968,367.726 378.432,381.362 382.896,384.133 387.36,375.864 391.824,357.076 396.288,328.948 400.752,293.248 405.216,252.219 409.68,208.44 414.144,164.661 418.608,123.632 423.072,87.9323 427.536,59.8045 432,41.016 436.464,32.7474 440.928,35.5182 445.392,49.1543 449.856,72.7989 454.32,104.966 458.784,143.635 463.248,186.376 467.712,230.504 472.176,273.245 476.64,311.914 481.104,344.081 485.568,367.726 490.032,381.362 494.496,384.133 498.96,375.864 503.424,357.076 507.888,328.948 512.352,293.248" stroke-width="0.5" stroke-linejoin="round"/>
  </g>
 </g>
</svg>
