<?xml version='1.0' encoding='UTF-8' standalone='no'?>
<svg width="576pt" xmlns:xlink="http://www.w3.org/1999/xlink" xmlns="http://www.w3.org/2000/svg" viewBox="0 0 576 432" height="432pt">
 <title>gl2ps_renderer figure</title>
 <desc>
Creator: GL2PS 1.4.0, (C) 1999-2017 C. Geuzaine
For: Octave
CreationDate: Mon Jun 10 02:36:56 2019
</desc>
 <defs/>
 <polygon points="0,0 576,0 576,432 0,432" fill="#ffffff"/>
 <g>
  <polygon shape-rendering="crispEdges" points="0,432 576,432 576,0 0,0" fill="#ffffff"/>
  <clipPath id="cp00576432">
   <polygon points="0,432 576,432 576,0 0,0"/>
  </clipPath>
  <g clip-path="url(#cp00576432)">
   <polygon shape-rendering="crispEdges" points="333.974,384.48 521.28,384.48 521.28,32.4 333.974,32.4" fill="#ffffff"/>
   <polyline points="333.974,384.48 333.974,380.958" stroke-linecap="butt" stroke-linejoin="miter" stroke="#262626" stroke-width="0.5" fill="none"/>
   <polyline points="333.974,32.4 333.974,35.9216" stroke-linecap="butt" stroke-linejoin="miter" stroke="#262626" stroke-width="0.5" fill="none"/>
   <polyline points="371.435,384.48 371.435,380.958" stroke-linecap="butt" stroke-linejoin="miter" stroke="#262626" stroke-width="0.5" fill="none"/>
   <polyline points="371.435,32.4 371.435,35.9216" stroke-linecap="butt" stroke-linejoin="miter" stroke="#262626" stroke-width="0.5" fill="none"/>
   <polyline points="408.896,384.48 408.896,380.958" stroke-linecap="butt" stroke-linejoin="miter" stroke="#262626" stroke-width="0.5" fill="none"/>
   <polyline points="408.896,32.4 408.896,35.9216" stroke-linecap="butt" stroke-linejoin="miter" stroke="#262626" stroke-width="0.5" fill="none"/>
   <polyline points="446.358,384.48 446.358,380.958" stroke-linecap="butt" stroke-linejoin="miter" stroke="#262626" stroke-width="0.5" fill="none"/>
   <polyline points="446.358,32.4 446.358,35.9216" stroke-linecap="butt" stroke-linejoin="miter" stroke="#262626" stroke-width="0.5" fill="none"/>
   <polyline points="483.819,384.48 483.819,380.958" stroke-linecap="butt" stroke-linejoin="miter" stroke="#262626" stroke-width="0.5" fill="none"/>
   <polyline points="483.819,32.4 483.819,35.9216" stroke-linecap="butt" stroke-linejoin="miter" stroke="#262626" stroke-width="0.5" fill="none"/>
   <polyline points="521.28,384.48 521.28,380.958" stroke-linecap="butt" stroke-linejoin="miter" stroke="#262626" stroke-width="0.5" fill="none"/>
   <polyline points="521.28,32.4 521.28,35.9216" stroke-linecap="butt" stroke-linejoin="miter" stroke="#262626" stroke-width="0.5" fill="none"/>
   <text font-style="normal" xml:space="preserve" font-weight="normal" transform="translate(330.974,399.982) rotate(-0,3,-8)" font-size="10" font-family="FreeSans">
    <tspan x="0 " y="-0" fill="rgb(38,38,38)">0</tspan>
   </text>
   <text font-style="normal" xml:space="preserve" font-weight="normal" transform="translate(363.935,399.982) rotate(-0,7.5,-8)" font-size="10" font-family="FreeSans">
    <tspan x="0 6 9 " y="-0" fill="rgb(38,38,38)">0.2</tspan>
   </text>
   <text font-style="normal" xml:space="preserve" font-weight="normal" transform="translate(401.396,399.982) rotate(-0,7.5,-8)" font-size="10" font-family="FreeSans">
    <tspan x="0 6 9 " y="-0" fill="rgb(38,38,38)">0.4</tspan>
   </text>
   <text font-style="normal" xml:space="preserve" font-weight="normal" transform="translate(438.858,399.982) rotate(-0,7.5,-8)" font-size="10" font-family="FreeSans">
    <tspan x="0 6 9 " y="-0" fill="rgb(38,38,38)">0.6</tspan>
   </text>
   <text font-style="normal" xml:space="preserve" font-weight="normal" transform="translate(476.319,399.982) rotate(-0,7.5,-8)" font-size="10" font-family="FreeSans">
    <tspan x="0 6 9 " y="-0" fill="rgb(38,38,38)">0.8</tspan>
   </text>
   <text font-style="normal" xml:space="preserve" font-weight="normal" transform="translate(518.28,399.982) rotate(-0,3,-8)" font-size="10" font-family="FreeSans">
    <tspan x="0 " y="-0" fill="rgb(38,38,38)">1</tspan>
   </text>
   <polyline points="333.974,384.48 337.501,384.48" stroke-linecap="butt" stroke-linejoin="miter" stroke="#262626" stroke-width="0.5" fill="none"/>
   <polyline points="521.28,384.48 517.753,384.48" stroke-linecap="butt" stroke-linejoin="miter" stroke="#262626" stroke-width="0.5" fill="none"/>
   <polyline points="333.974,296.46 337.501,296.46" stroke-linecap="butt" stroke-linejoin="miter" stroke="#262626" stroke-width="0.5" fill="none"/>
   <polyline points="521.28,296.46 517.753,296.46" stroke-linecap="butt" stroke-linejoin="miter" stroke="#262626" stroke-width="0.5" fill="none"/>
   <polyline points="333.974,208.44 337.501,208.44" stroke-linecap="butt" stroke-linejoin="miter" stroke="#262626" stroke-width="0.5" fill="none"/>
   <polyline points="521.28,208.44 517.753,208.44" stroke-linecap="butt" stroke-linejoin="miter" stroke="#262626" stroke-width="0.5" fill="none"/>
   <polyline points="333.974,120.42 337.501,120.42" stroke-linecap="butt" stroke-linejoin="miter" stroke="#262626" stroke-width="0.5" fill="none"/>
   <polyline points="521.28,120.42 517.753,120.42" stroke-linecap="butt" stroke-linejoin="miter" stroke="#262626" stroke-width="0.5" fill="none"/>
   <polyline points="333.974,32.4 337.501,32.4" stroke-linecap="butt" stroke-linejoin="miter" stroke="#262626" stroke-width="0.5" fill="none"/>
   <polyline points="521.28,32.4 517.753,32.4" stroke-linecap="butt" stroke-linejoin="miter" stroke="#262626" stroke-width="0.5" fill="none"/>
   <text font-style="normal" xml:space="preserve" font-weight="normal" transform="translate(319.966,388.48) rotate(-0,9,-4)" font-size="10" font-family="FreeSans">
    <tspan x="0 3 " y="-0" fill="rgb(38,38,38)">-1</tspan>
   </text>
   <text font-style="normal" xml:space="preserve" font-weight="normal" transform="translate(310.966,300.46) rotate(-0,18,-4)" font-size="10" font-family="FreeSans">
    <tspan x="0 3 9 12 " y="-0" fill="rgb(38,38,38)">-0.5</tspan>
   </text>
   <text font-style="normal" xml:space="preserve" font-weight="normal" transform="translate(322.966,212.44) rotate(-0,6,-4)" font-size="10" font-family="FreeSans">
    <tspan x="0 " y="-0" fill="rgb(38,38,38)">0</tspan>
   </text>
   <text font-style="normal" xml:space="preserve" font-weight="normal" transform="translate(313.966,124.42) rotate(-0,15,-4)" font-size="10" font-family="FreeSans">
    <tspan x="0 6 9 " y="-0" fill="rgb(38,38,38)">0.5</tspan>
   </text>
   <text font-style="normal" xml:space="preserve" font-weight="normal" transform="translate(322.966,36.4) rotate(-0,6,-4)" font-size="10" font-family="FreeSans">
    <tspan x="0 " y="-0" fill="rgb(38,38,38)">1</tspan>
   </text>
   <polyline points="333.974,384.48 521.28,384.48" stroke-linecap="square" stroke-linejoin="miter" stroke="#262626" stroke-width="0.5" fill="none" stroke-dasharray="16,0"/>
   <polyline points="333.974,32.4 521.28,32.4" stroke-linecap="square" stroke-linejoin="miter" stroke="#262626" stroke-width="0.5" fill="none" stroke-dasharray="16,0"/>
   <polyline points="333.974,384.48 333.974,32.4" stroke-linecap="square" stroke-linejoin="miter" stroke="#262626" stroke-width="0.5" fill="none" stroke-dasharray="16,0"/>
   <polyline points="521.28,384.48 521.28,32.4" stroke-linecap="square" stroke-linejoin="miter" stroke="#262626" stroke-width="0.5" fill="none" stroke-dasharray="16,0"/>
   <polyline points="333.974,32.4 335.847,37.9306 337.72,54.175 339.593,80.1124 341.466,114.113 343.339,154.041 345.212,197.386 347.085,241.427 348.959,283.394 350.832,320.652 352.705,350.859 354.578,372.118 356.451,383.092 358.324,383.092 360.197,372.118 362.07,350.859 363.943,320.652 365.816,283.394 367.689,241.427 369.562,197.386 371.435,154.041 373.308,114.113 375.181,80.1124 377.054,54.175 378.927,37.9306 380.801,32.4 382.674,37.9306 384.547,54.175 386.42,80.1124 388.293,114.113 390.166,154.041 392.039,197.386 393.912,241.427 395.785,283.394 397.658,320.652 399.531,350.859 401.404,372.118 403.277,383.092 405.15,383.092 407.023,372.118 408.896,350.859 410.77,320.652 412.643,283.394 414.516,241.427 416.389,197.386 418.262,154.041 420.135,114.113 422.008,80.1124 423.881,54.175 425.754,37.9306 427.627,32.4 429.5,37.9306 431.373,54.175 433.246,80.1124 435.119,114.113 436.992,154.041 438.865,197.386 440.738,241.427 442.612,283.394 444.485,320.652 446.358,350.859 448.231,372.118 450.104,383.092 451.977,383.092 453.85,372.118 455.723,350.859 457.596,320.652 459.469,283.394 461.342,241.427 463.215,197.386 465.088,154.041 466.961,114.113 468.834,80.1124 470.707,54.175 472.58,37.9306 474.454,32.4 476.327,37.9306 478.2,54.175 480.073,80.1124 481.946,114.113 483.819,154.041 485.692,197.386 487.565,241.427 489.438,283.394 491.311,320.652 493.184,350.859 495.057,372.118 496.93,383.092 498.803,383.092 500.676,372.118 502.549,350.859 504.422,320.652 506.296,283.394 508.169,241.427 510.042,197.386 511.915,154.041 513.788,114.113 515.661,80.1124 517.534,54.175" stroke-linecap="butt" stroke-linejoin="round" stroke="#0071bc" stroke-width="0.5" fill="none"/>
  </g>
  <clipPath id="cp00576432">
   <polygon points="0,432 576,432 576,0 0,0"/>
  </clipPath>
  <g clip-path="url(#cp00576432)">
   <polygon shape-rendering="crispEdges" points="74.88,384.48 262.186,384.48 262.186,32.4 74.88,32.4" fill="#ffffff"/>
   <polyline points="74.88,384.48 74.88,380.958" stroke-linecap="butt" stroke-linejoin="miter" stroke="#262626" stroke-width="0.5" fill="none"/>
   <polyline points="74.88,32.4 74.88,35.9216" stroke-linecap="butt" stroke-linejoin="miter" stroke="#262626" stroke-width="0.5" fill="none"/>
   <polyline points="112.341,384.48 112.341,380.958" stroke-linecap="butt" stroke-linejoin="miter" stroke="#262626" stroke-width="0.5" fill="none"/>
   <polyline points="112.341,32.4 112.341,35.9216" stroke-linecap="butt" stroke-linejoin="miter" stroke="#262626" stroke-width="0.5" fill="none"/>
   <polyline points="149.802,384.48 149.802,380.958" stroke-linecap="butt" stroke-linejoin="miter" stroke="#262626" stroke-width="0.5" fill="none"/>
   <polyline points="149.802,32.4 149.802,35.9216" stroke-linecap="butt" stroke-linejoin="miter" stroke="#262626" stroke-width="0.5" fill="none"/>
   <polyline points="187.264,384.48 187.264,380.958" stroke-linecap="butt" stroke-linejoin="miter" stroke="#262626" stroke-width="0.5" fill="none"/>
   <polyline points="187.264,32.4 187.264,35.9216" stroke-linecap="butt" stroke-linejoin="miter" stroke="#262626" stroke-width="0.5" fill="none"/>
   <polyline points="224.725,384.48 224.725,380.958" stroke-linecap="butt" stroke-linejoin="miter" stroke="#262626" stroke-width="0.5" fill="none"/>
   <polyline points="224.725,32.4 224.725,35.9216" stroke-linecap="butt" stroke-linejoin="miter" stroke="#262626" stroke-width="0.5" fill="none"/>
   <polyline points="262.186,384.48 262.186,380.958" stroke-linecap="butt" stroke-linejoin="miter" stroke="#262626" stroke-width="0.5" fill="none"/>
   <polyline points="262.186,32.4 262.186,35.9216" stroke-linecap="butt" stroke-linejoin="miter" stroke="#262626" stroke-width="0.5" fill="none"/>
   <text font-style="normal" xml:space="preserve" font-weight="normal" transform="translate(71.88,399.982) rotate(-0,3,-8)" font-size="10" font-family="FreeSans">
    <tspan x="0 " y="-0" fill="rgb(38,38,38)">0</tspan>
   </text>
   <text font-style="normal" xml:space="preserve" font-weight="normal" transform="translate(104.841,399.982) rotate(-0,7.5,-8)" font-size="10" font-family="FreeSans">
    <tspan x="0 6 9 " y="-0" fill="rgb(38,38,38)">0.2</tspan>
   </text>
   <text font-style="normal" xml:space="preserve" font-weight="normal" transform="translate(142.302,399.982) rotate(-0,7.5,-8)" font-size="10" font-family="FreeSans">
    <tspan x="0 6 9 " y="-0" fill="rgb(38,38,38)">0.4</tspan>
   </text>
   <text font-style="normal" xml:space="preserve" font-weight="normal" transform="translate(179.764,399.982) rotate(-0,7.5,-8)" font-size="10" font-family="FreeSans">
    <tspan x="0 6 9 " y="-0" fill="rgb(38,38,38)">0.6</tspan>
   </text>
   <text font-style="normal" xml:space="preserve" font-weight="normal" transform="translate(217.225,399.982) rotate(-0,7.5,-8)" font-size="10" font-family="FreeSans">
    <tspan x="0 6 9 " y="-0" fill="rgb(38,38,38)">0.8</tspan>
   </text>
   <text font-style="normal" xml:space="preserve" font-weight="normal" transform="translate(259.186,399.982) rotate(-0,3,-8)" font-size="10" font-family="FreeSans">
    <tspan x="0 " y="-0" fill="rgb(38,38,38)">1</tspan>
   </text>
   <polyline points="74.88,384.48 78.4066,384.48" stroke-linecap="butt" stroke-linejoin="miter" stroke="#262626" stroke-width="0.5" fill="none"/>
   <polyline points="262.186,384.48 258.659,384.48" stroke-linecap="butt" stroke-linejoin="miter" stroke="#262626" stroke-width="0.5" fill="none"/>
   <polyline points="74.88,296.46 78.4066,296.46" stroke-linecap="butt" stroke-linejoin="miter" stroke="#262626" stroke-width="0.5" fill="none"/>
   <polyline points="262.186,296.46 258.659,296.46" stroke-linecap="butt" stroke-linejoin="miter" stroke="#262626" stroke-width="0.5" fill="none"/>
   <polyline points="74.88,208.44 78.4066,208.44" stroke-linecap="butt" stroke-linejoin="miter" stroke="#262626" stroke-width="0.5" fill="none"/>
   <polyline points="262.186,208.44 258.659,208.44" stroke-linecap="butt" stroke-linejoin="miter" stroke="#262626" stroke-width="0.5" fill="none"/>
   <polyline points="74.88,120.42 78.4066,120.42" stroke-linecap="butt" stroke-linejoin="miter" stroke="#262626" stroke-width="0.5" fill="none"/>
   <polyline points="262.186,120.42 258.659,120.42" stroke-linecap="butt" stroke-linejoin="miter" stroke="#262626" stroke-width="0.5" fill="none"/>
   <polyline points="74.88,32.4 78.4066,32.4" stroke-linecap="butt" stroke-linejoin="miter" stroke="#262626" stroke-width="0.5" fill="none"/>
   <polyline points="262.186,32.4 258.659,32.4" stroke-linecap="butt" stroke-linejoin="miter" stroke="#262626" stroke-width="0.5" fill="none"/>
   <text font-style="normal" xml:space="preserve" font-weight="normal" transform="translate(60.8718,388.48) rotate(-0,9,-4)" font-size="10" font-family="FreeSans">
    <tspan x="0 3 " y="-0" fill="rgb(38,38,38)">-1</tspan>
   </text>
   <text font-style="normal" xml:space="preserve" font-weight="normal" transform="translate(51.8718,300.46) rotate(-0,18,-4)" font-size="10" font-family="FreeSans">
    <tspan x="0 3 9 12 " y="-0" fill="rgb(38,38,38)">-0.5</tspan>
   </text>
   <text font-style="normal" xml:space="preserve" font-weight="normal" transform="translate(63.8718,212.44) rotate(-0,6,-4)" font-size="10" font-family="FreeSans">
    <tspan x="0 " y="-0" fill="rgb(38,38,38)">0</tspan>
   </text>
   <text font-style="normal" xml:space="preserve" font-weight="normal" transform="translate(54.8718,124.42) rotate(-0,15,-4)" font-size="10" font-family="FreeSans">
    <tspan x="0 6 9 " y="-0" fill="rgb(38,38,38)">0.5</tspan>
   </text>
   <text font-style="normal" xml:space="preserve" font-weight="normal" transform="translate(63.8718,36.4) rotate(-0,6,-4)" font-size="10" font-family="FreeSans">
    <tspan x="0 " y="-0" fill="rgb(38,38,38)">1</tspan>
   </text>
   <polyline points="74.88,384.48 262.186,384.48" stroke-linecap="square" stroke-linejoin="miter" stroke="#262626" stroke-width="0.5" fill="none" stroke-dasharray="16,0"/>
   <polyline points="74.88,32.4 262.186,32.4" stroke-linecap="square" stroke-linejoin="miter" stroke="#262626" stroke-width="0.5" fill="none" stroke-dasharray="16,0"/>
   <polyline points="74.88,384.48 74.88,32.4" stroke-linecap="square" stroke-linejoin="miter" stroke="#262626" stroke-width="0.5" fill="none" stroke-dasharray="16,0"/>
   <polyline points="262.186,384.48 262.186,32.4" stroke-linecap="square" stroke-linejoin="miter" stroke="#262626" stroke-width="0.5" fill="none" stroke-dasharray="16,0"/>
   <polyline points="74.88,208.44 76.7531,164.661 78.6261,123.632 80.4992,87.9323 82.3722,59.8045 84.2453,41.016 86.1184,32.7474 87.9914,35.5182 89.8645,49.1543 91.7375,72.7989 93.6106,104.966 95.4837,143.635 97.3567,186.376 99.2298,230.504 101.103,273.245 102.976,311.914 104.849,344.081 106.722,367.726 108.595,381.362 110.468,384.133 112.341,375.864 114.214,357.076 116.087,328.948 117.96,293.248 119.833,252.219 121.706,208.44 123.58,164.661 125.453,123.632 127.326,87.9323 129.199,59.8045 131.072,41.016 132.945,32.7474 134.818,35.5182 136.691,49.1543 138.564,72.7989 140.437,104.966 142.31,143.635 144.183,186.376 146.056,230.504 147.929,273.245 149.802,311.914 151.675,344.081 153.549,367.726 155.422,381.362 157.295,384.133 159.168,375.864 161.041,357.076 162.914,328.948 164.787,293.248 166.66,252.219 168.533,208.44 170.406,164.661 172.279,123.632 174.152,87.9323 176.025,59.8045 177.898,41.016 179.771,32.7474 181.644,35.5182 183.517,49.1543 185.391,72.7989 187.264,104.966 189.137,143.635 191.01,186.376 192.883,230.504 194.756,273.245 196.629,311.914 198.502,344.081 200.375,367.726 202.248,381.362 204.121,384.133 205.994,375.864 207.867,357.076 209.74,328.948 211.613,293.248 213.486,252.219 215.359,208.44 217.233,164.661 219.106,123.632 220.979,87.9323 222.852,59.8045 224.725,41.016 226.598,32.7474 228.471,35.5182 230.344,49.1543 232.217,72.7989 234.09,104.966 235.963,143.635 237.836,186.376 239.709,230.504 241.582,273.245 243.455,311.914 245.328,344.081 247.202,367.726 249.075,381.362 250.948,384.133 252.821,375.864 254.694,357.076 256.567,328.948 258.44,293.248" stroke-linecap="butt" stroke-linejoin="round" stroke="#0071bc" stroke-width="0.5" fill="none"/>
  </g>
 </g>
</svg>
